<svg width="1024" height="1024" viewBox="0 0 1024 1024" fill="none" xmlns="http://www.w3.org/2000/svg">
<rect width="1024" height="1024" rx="126" fill="url(#paint0_linear_60_1164)"/>
<path d="M928 382L767.973 797.507C762.623 811.256 756.251 824.103 748.855 836.049C741.617 847.769 731.468 858.024 718.407 866.815C705.347 875.605 689.691 880 671.438 880C653.972 880 638.473 875.379 624.94 866.138C611.408 856.897 600.551 846.079 592.369 833.682C584.186 821.06 578.6 809.904 575.611 800.212L417 382H527.225L653.972 708.929C657.591 718.395 660.266 724.706 661.997 727.862C663.885 731.017 666.875 732.595 670.966 732.595C675.372 732.595 678.519 730.904 680.407 727.523C682.453 724.143 685.206 717.944 688.668 708.929L816.359 382H928Z" fill="#0099F9"/>
<path d="M395.841 749.403C395.841 765.623 391.277 784.162 382.148 805.017C373.019 825.641 360.899 843.252 345.789 857.851C330.679 872.449 314.782 879.749 298.098 879.749H96V760.178H242.615C253.633 760.178 263.313 756.239 271.655 748.36C280.154 740.481 286.686 730.749 291.251 719.162C295.815 707.576 298.098 696.337 298.098 685.446V382H395.841V749.403Z" fill="#0099F9"/>
<path d="M233.544 147.549L190.47 251.385C189.03 254.821 187.315 258.031 185.324 261.017C183.376 263.945 180.644 266.508 177.129 268.705C173.614 270.902 169.399 272 164.486 272C159.785 272 155.613 270.845 151.971 268.536C148.328 266.227 145.406 263.523 143.203 260.425C141.001 257.271 139.497 254.483 138.693 252.061L96 147.549H125.669L159.785 229.249C160.759 231.615 161.479 233.192 161.945 233.98C162.453 234.769 163.258 235.163 164.359 235.163C165.545 235.163 166.392 234.741 166.9 233.896C167.451 233.051 168.192 231.502 169.124 229.249L203.494 147.549H233.544Z" fill="#0099F9"/>
<path d="M269.249 268.536H243.074V147.549H269.249V268.536Z" fill="#0099F9"/>
<path d="M408.762 268.705H381.825C379.792 253.722 377.844 242.316 375.98 234.487C374.117 226.602 371.554 222.659 368.293 222.659H308.828V268.705H282.654V194.862H363.846C366.091 194.862 368.103 193.989 369.882 192.243C371.66 190.44 372.55 188.131 372.55 185.315C372.55 184.188 372.253 182.893 371.66 181.428C371.067 179.908 370.157 178.612 368.929 177.542C367.743 176.472 366.218 175.937 364.354 175.937H282.654V147.549H382.334C388.348 147.549 392.689 149.802 395.357 154.308C398.026 158.757 399.36 163.967 399.36 169.938V194.44C399.36 199.509 398.682 203.255 397.327 205.677C396.014 208.042 393.303 210.718 389.195 213.703C391.863 215.618 393.748 217.111 394.849 218.181C395.993 219.251 397.39 221.532 399.042 225.024C400.694 228.517 402.325 233.699 403.934 240.57C405.543 247.442 407.153 256.82 408.762 268.705Z" fill="#0099F9"/>
<path d="M544.401 176.866H497.197V268.874H466.258V176.782H419.054V147.717H544.401V176.866Z" fill="#0099F9"/>
<path d="M675.084 235.67C675.084 239.782 673.877 244.457 671.462 249.695C669.091 254.933 666.083 259.411 662.441 263.129C658.799 266.846 655.199 268.705 651.641 268.705H587.411C582.244 268.705 577.437 266.705 572.99 262.706C568.585 258.707 565.112 253.666 562.571 247.583C560.029 241.443 558.759 235.501 558.759 229.756V147.549H584.552V220.8C584.552 224.123 585.272 227.193 586.712 230.009C588.195 232.769 589.91 234.966 591.858 236.599C593.849 238.176 595.607 238.965 597.131 238.965H636.584C638.236 238.965 639.972 238.036 641.794 236.177C643.657 234.262 645.203 232.009 646.431 229.418C647.66 226.771 648.274 224.518 648.274 222.659V147.549H675.084V235.67Z" fill="#0099F9"/>
<path d="M681.691 268.198L724.955 164.446C726.438 161.067 728.153 157.912 730.101 154.983C732.05 151.998 734.782 149.435 738.297 147.295C741.855 145.098 746.09 144 751.003 144C755.704 144.056 759.855 145.239 763.455 147.549C767.098 149.802 770.02 152.505 772.222 155.659C774.425 158.814 775.928 161.602 776.733 164.024L819.172 268.705L789.566 268.62L780.863 247.667V247.921H720.635V247.16L711.677 268.283L681.691 268.198ZM731.563 221.222H769.935L755.641 186.751C754.667 184.385 753.925 182.837 753.417 182.104C752.909 181.316 752.125 180.893 751.067 180.837C749.881 180.837 749.012 181.288 748.462 182.189C747.954 183.034 747.212 184.526 746.238 186.667L731.563 221.222Z" fill="#0099F9"/>
<path d="M928 268.705H851.763C847.655 268.705 843.652 266.79 839.756 262.96C835.901 259.073 832.725 254.539 830.226 249.357C827.727 244.175 826.478 240.063 826.478 237.022V147.549H851.763V220.293C851.763 224.349 852.589 227.897 854.241 230.939C855.935 233.98 857.904 236.29 860.149 237.867C862.436 239.387 864.321 240.148 865.803 240.148H928V268.705Z" fill="#0099F9"/>
<defs>
<linearGradient id="paint0_linear_60_1164" x1="0" y1="0" x2="1024" y2="1024" gradientUnits="userSpaceOnUse">
<stop stop-color="#393939"/>
<stop offset="1"/>
</linearGradient>
</defs>
</svg>
